<mxfile host="app.diagrams.net" modified="2021-07-21T20:38:38.966Z" agent="5.0 (Windows NT 10.0; Win64; x64) AppleWebKit/537.36 (KHTML, like Gecko) Chrome/91.0.4472.164 Safari/537.36" etag="T-fEOW3UxeU1PPhTFl61" version="14.8.0" type="github">
  <diagram id="yqKKEiH-HQo9TE-18WpN" name="Page-1">
    <mxGraphModel dx="1422" dy="794" grid="1" gridSize="10" guides="1" tooltips="1" connect="1" arrows="1" fold="1" page="1" pageScale="1" pageWidth="827" pageHeight="1169" math="0" shadow="0">
      <root>
        <mxCell id="0" />
        <mxCell id="1" parent="0" />
        <mxCell id="d9pyYErVMQeaN3NLRM1w-1" value="" style="rounded=0;whiteSpace=wrap;html=1;" parent="1" vertex="1">
          <mxGeometry x="160" y="35" width="480" height="620" as="geometry" />
        </mxCell>
        <mxCell id="d9pyYErVMQeaN3NLRM1w-2" value="user&lt;br&gt;" style="shape=umlActor;verticalLabelPosition=bottom;verticalAlign=top;html=1;outlineConnect=0;" parent="1" vertex="1">
          <mxGeometry x="80" y="150" width="30" height="60" as="geometry" />
        </mxCell>
        <mxCell id="d9pyYErVMQeaN3NLRM1w-3" value="admin" style="shape=umlActor;verticalLabelPosition=bottom;verticalAlign=top;html=1;outlineConnect=0;" parent="1" vertex="1">
          <mxGeometry x="80" y="440" width="30" height="60" as="geometry" />
        </mxCell>
        <mxCell id="d9pyYErVMQeaN3NLRM1w-12" value="&lt;p&gt;&amp;lt;&amp;lt;actor&amp;gt;&amp;gt;&lt;/p&gt;&lt;p&gt;&lt;b&gt;auth system&lt;/b&gt;&lt;/p&gt;" style="shape=rect;html=1;overflow=fill;whiteSpace=wrap;align=center;" parent="1" vertex="1">
          <mxGeometry x="667" y="30" width="160" height="80" as="geometry" />
        </mxCell>
        <mxCell id="d9pyYErVMQeaN3NLRM1w-14" value="sign in" style="ellipse;whiteSpace=wrap;html=1;" parent="1" vertex="1">
          <mxGeometry x="414" y="100" width="80" height="40" as="geometry" />
        </mxCell>
        <mxCell id="d9pyYErVMQeaN3NLRM1w-15" value="sign up" style="ellipse;whiteSpace=wrap;html=1;" parent="1" vertex="1">
          <mxGeometry x="360" y="50" width="80" height="40" as="geometry" />
        </mxCell>
        <mxCell id="d9pyYErVMQeaN3NLRM1w-16" value="sign out" style="ellipse;whiteSpace=wrap;html=1;" parent="1" vertex="1">
          <mxGeometry x="280" y="100" width="80" height="40" as="geometry" />
        </mxCell>
        <mxCell id="d9pyYErVMQeaN3NLRM1w-19" value="&lt;p&gt;&amp;lt;&amp;lt;actor&amp;gt;&amp;gt;&lt;/p&gt;&lt;p&gt;&lt;b&gt;DBMS&lt;/b&gt;&lt;br&gt;&lt;/p&gt;" style="shape=rect;html=1;overflow=fill;whiteSpace=wrap;align=center;" parent="1" vertex="1">
          <mxGeometry x="667" y="357" width="160" height="80" as="geometry" />
        </mxCell>
        <mxCell id="d9pyYErVMQeaN3NLRM1w-28" value="&amp;lt;&amp;lt;include&amp;gt;&amp;gt;" style="html=1;verticalAlign=bottom;labelBackgroundColor=none;endArrow=open;endFill=0;dashed=1;strokeColor=#000000;strokeWidth=0.5;exitX=1;exitY=0.5;exitDx=0;exitDy=0;entryX=0.038;entryY=0.675;entryDx=0;entryDy=0;entryPerimeter=0;" parent="1" edge="1" target="d9pyYErVMQeaN3NLRM1w-41" source="d9pyYErVMQeaN3NLRM1w-14">
          <mxGeometry width="160" relative="1" as="geometry">
            <mxPoint x="440" y="179.5" as="sourcePoint" />
            <mxPoint x="520" y="120" as="targetPoint" />
          </mxGeometry>
        </mxCell>
        <mxCell id="d9pyYErVMQeaN3NLRM1w-35" value="" style="endArrow=none;html=1;strokeColor=#000000;strokeWidth=0.5;exitX=0.5;exitY=0.5;exitDx=0;exitDy=0;exitPerimeter=0;entryX=0;entryY=0.5;entryDx=0;entryDy=0;" parent="1" source="d9pyYErVMQeaN3NLRM1w-2" target="d9pyYErVMQeaN3NLRM1w-15" edge="1">
          <mxGeometry width="50" height="50" relative="1" as="geometry">
            <mxPoint x="360" y="350" as="sourcePoint" />
            <mxPoint x="410" y="300" as="targetPoint" />
          </mxGeometry>
        </mxCell>
        <mxCell id="d9pyYErVMQeaN3NLRM1w-36" value="reserve &lt;br&gt;A-LIVE" style="ellipse;whiteSpace=wrap;html=1;" parent="1" vertex="1">
          <mxGeometry x="280" y="220" width="80" height="40" as="geometry" />
        </mxCell>
        <mxCell id="d9pyYErVMQeaN3NLRM1w-38" value="read all&lt;br&gt;A-Trends" style="ellipse;whiteSpace=wrap;html=1;" parent="1" vertex="1">
          <mxGeometry x="190" y="220" width="80" height="40" as="geometry" />
        </mxCell>
        <mxCell id="d9pyYErVMQeaN3NLRM1w-39" value="" style="endArrow=none;html=1;strokeColor=#000000;strokeWidth=0.5;exitX=0;exitY=0.5;exitDx=0;exitDy=0;entryX=1;entryY=0.5;entryDx=0;entryDy=0;" parent="1" source="d9pyYErVMQeaN3NLRM1w-12" target="d9pyYErVMQeaN3NLRM1w-41" edge="1">
          <mxGeometry width="50" height="50" relative="1" as="geometry">
            <mxPoint x="105" y="170" as="sourcePoint" />
            <mxPoint x="590" y="110" as="targetPoint" />
          </mxGeometry>
        </mxCell>
        <mxCell id="d9pyYErVMQeaN3NLRM1w-40" value="&amp;lt;&amp;lt;extend&amp;gt;&amp;gt;" style="html=1;verticalAlign=bottom;labelBackgroundColor=none;endArrow=open;endFill=0;dashed=1;strokeColor=#000000;strokeWidth=0.5;exitX=1;exitY=0.5;exitDx=0;exitDy=0;entryX=0;entryY=0.5;entryDx=0;entryDy=0;" parent="1" edge="1" target="d9pyYErVMQeaN3NLRM1w-52" source="d9pyYErVMQeaN3NLRM1w-42">
          <mxGeometry width="160" relative="1" as="geometry">
            <mxPoint x="630" y="750" as="sourcePoint" />
            <mxPoint x="790" y="750" as="targetPoint" />
          </mxGeometry>
        </mxCell>
        <mxCell id="d9pyYErVMQeaN3NLRM1w-41" value="auth&lt;br&gt;ex) jwt" style="ellipse;whiteSpace=wrap;html=1;" parent="1" vertex="1">
          <mxGeometry x="529" y="93" width="80" height="40" as="geometry" />
        </mxCell>
        <mxCell id="d9pyYErVMQeaN3NLRM1w-42" value="create cart product" style="ellipse;whiteSpace=wrap;html=1;" parent="1" vertex="1">
          <mxGeometry x="400" y="300" width="80" height="40" as="geometry" />
        </mxCell>
        <mxCell id="d9pyYErVMQeaN3NLRM1w-44" value="create alarm" style="ellipse;whiteSpace=wrap;html=1;" parent="1" vertex="1">
          <mxGeometry x="190" y="267" width="80" height="40" as="geometry" />
        </mxCell>
        <mxCell id="d9pyYErVMQeaN3NLRM1w-45" value="&lt;p&gt;&amp;lt;&amp;lt;actor&amp;gt;&amp;gt;&lt;/p&gt;&lt;p&gt;&lt;b&gt;shopping system&lt;/b&gt;&lt;br&gt;&lt;/p&gt;" style="shape=rect;html=1;overflow=fill;whiteSpace=wrap;align=center;" parent="1" vertex="1">
          <mxGeometry x="667" y="140" width="160" height="80" as="geometry" />
        </mxCell>
        <mxCell id="d9pyYErVMQeaN3NLRM1w-46" value="&lt;p&gt;&amp;lt;&amp;lt;actor&amp;gt;&amp;gt;&lt;/p&gt;&lt;p&gt;&lt;b&gt;broadcast system&lt;/b&gt;&lt;br&gt;&lt;/p&gt;" style="shape=rect;html=1;overflow=fill;whiteSpace=wrap;align=center;" parent="1" vertex="1">
          <mxGeometry x="667" y="247" width="160" height="80" as="geometry" />
        </mxCell>
        <mxCell id="d9pyYErVMQeaN3NLRM1w-47" value="read all&lt;br&gt;Voyage contents" style="ellipse;whiteSpace=wrap;html=1;" parent="1" vertex="1">
          <mxGeometry x="180" y="372" width="90" height="50" as="geometry" />
        </mxCell>
        <mxCell id="d9pyYErVMQeaN3NLRM1w-49" value="read one&lt;br&gt;content" style="ellipse;whiteSpace=wrap;html=1;" parent="1" vertex="1">
          <mxGeometry x="185" y="427" width="80" height="40" as="geometry" />
        </mxCell>
        <mxCell id="d9pyYErVMQeaN3NLRM1w-50" value="&lt;p&gt;&amp;lt;&amp;lt;actor&amp;gt;&amp;gt;&lt;/p&gt;&lt;p&gt;&lt;b&gt;payment system&lt;/b&gt;&lt;/p&gt;" style="shape=rect;html=1;overflow=fill;whiteSpace=wrap;align=center;" parent="1" vertex="1">
          <mxGeometry x="667" y="467" width="160" height="80" as="geometry" />
        </mxCell>
        <mxCell id="d9pyYErVMQeaN3NLRM1w-51" value="search the content" style="ellipse;whiteSpace=wrap;html=1;" parent="1" vertex="1">
          <mxGeometry x="285" y="472" width="80" height="40" as="geometry" />
        </mxCell>
        <mxCell id="d9pyYErVMQeaN3NLRM1w-52" value="purchase the product" style="ellipse;whiteSpace=wrap;html=1;" parent="1" vertex="1">
          <mxGeometry x="529" y="260" width="80" height="40" as="geometry" />
        </mxCell>
        <mxCell id="d9pyYErVMQeaN3NLRM1w-53" value="read all&lt;br&gt;Voyage &lt;br&gt;stores" style="ellipse;whiteSpace=wrap;html=1;" parent="1" vertex="1">
          <mxGeometry x="280" y="372" width="90" height="50" as="geometry" />
        </mxCell>
        <mxCell id="d9pyYErVMQeaN3NLRM1w-54" value="read one&lt;br&gt;store" style="ellipse;whiteSpace=wrap;html=1;" parent="1" vertex="1">
          <mxGeometry x="285" y="427" width="80" height="40" as="geometry" />
        </mxCell>
        <mxCell id="d9pyYErVMQeaN3NLRM1w-55" value="read all&lt;br&gt;Voyage &lt;br&gt;channel" style="ellipse;whiteSpace=wrap;html=1;" parent="1" vertex="1">
          <mxGeometry x="380" y="372" width="90" height="50" as="geometry" />
        </mxCell>
        <mxCell id="d9pyYErVMQeaN3NLRM1w-56" value="read one&lt;br&gt;channel" style="ellipse;whiteSpace=wrap;html=1;" parent="1" vertex="1">
          <mxGeometry x="385" y="427" width="80" height="40" as="geometry" />
        </mxCell>
        <mxCell id="d9pyYErVMQeaN3NLRM1w-59" value="read&amp;nbsp;&lt;br&gt;all feeds" style="ellipse;whiteSpace=wrap;html=1;" parent="1" vertex="1">
          <mxGeometry x="185" y="550" width="80" height="40" as="geometry" />
        </mxCell>
        <mxCell id="d9pyYErVMQeaN3NLRM1w-60" value="read&amp;nbsp;&lt;br&gt;one feed" style="ellipse;whiteSpace=wrap;html=1;" parent="1" vertex="1">
          <mxGeometry x="285" y="550" width="80" height="40" as="geometry" />
        </mxCell>
        <mxCell id="d9pyYErVMQeaN3NLRM1w-62" value="delete cart product" style="ellipse;whiteSpace=wrap;html=1;" parent="1" vertex="1">
          <mxGeometry x="400" y="230" width="80" height="40" as="geometry" />
        </mxCell>
        <mxCell id="d9pyYErVMQeaN3NLRM1w-63" value="&lt;p&gt;&amp;lt;&amp;lt;actor&amp;gt;&amp;gt;&lt;/p&gt;&lt;p&gt;&lt;b&gt;sns system&lt;/b&gt;&lt;/p&gt;" style="shape=rect;html=1;overflow=fill;whiteSpace=wrap;align=center;" parent="1" vertex="1">
          <mxGeometry x="667" y="575" width="160" height="80" as="geometry" />
        </mxCell>
        <mxCell id="bCWWaKdkybvp4xZFp1gc-1" value="subscribe channel" style="ellipse;whiteSpace=wrap;html=1;" parent="1" vertex="1">
          <mxGeometry x="185" y="472" width="80" height="40" as="geometry" />
        </mxCell>
        <mxCell id="7DruziITL7EI19DTVxZY-1" value="A-Trend traffic" style="ellipse;whiteSpace=wrap;html=1;" vertex="1" parent="1">
          <mxGeometry x="529" y="170" width="80" height="40" as="geometry" />
        </mxCell>
        <mxCell id="7DruziITL7EI19DTVxZY-2" value="Voyage traffic" style="ellipse;whiteSpace=wrap;html=1;" vertex="1" parent="1">
          <mxGeometry x="529" y="357" width="80" height="40" as="geometry" />
        </mxCell>
        <mxCell id="7DruziITL7EI19DTVxZY-3" value="Feed traffic" style="ellipse;whiteSpace=wrap;html=1;" vertex="1" parent="1">
          <mxGeometry x="529" y="550" width="80" height="40" as="geometry" />
        </mxCell>
        <mxCell id="7DruziITL7EI19DTVxZY-4" value="services" style="ellipse;whiteSpace=wrap;html=1;" vertex="1" parent="1">
          <mxGeometry x="360" y="160" width="80" height="40" as="geometry" />
        </mxCell>
        <mxCell id="7DruziITL7EI19DTVxZY-12" value="&amp;lt;&amp;lt;include&amp;gt;&amp;gt;" style="html=1;verticalAlign=bottom;labelBackgroundColor=none;endArrow=open;endFill=0;dashed=1;strokeColor=#000000;strokeWidth=0.5;exitX=1;exitY=0.5;exitDx=0;exitDy=0;entryX=0;entryY=0.5;entryDx=0;entryDy=0;" edge="1" parent="1" source="d9pyYErVMQeaN3NLRM1w-16" target="d9pyYErVMQeaN3NLRM1w-14">
          <mxGeometry width="160" relative="1" as="geometry">
            <mxPoint x="393" y="185" as="sourcePoint" />
            <mxPoint x="434" y="175" as="targetPoint" />
          </mxGeometry>
        </mxCell>
        <mxCell id="7DruziITL7EI19DTVxZY-13" value="&amp;lt;&amp;lt;include&amp;gt;&amp;gt;" style="html=1;verticalAlign=bottom;labelBackgroundColor=none;endArrow=open;endFill=0;dashed=1;strokeColor=#000000;strokeWidth=0.5;exitX=0.5;exitY=0;exitDx=0;exitDy=0;entryX=0.5;entryY=1;entryDx=0;entryDy=0;" edge="1" parent="1" source="7DruziITL7EI19DTVxZY-4" target="d9pyYErVMQeaN3NLRM1w-14">
          <mxGeometry width="160" relative="1" as="geometry">
            <mxPoint x="490" y="199" as="sourcePoint" />
            <mxPoint x="544" y="199" as="targetPoint" />
          </mxGeometry>
        </mxCell>
        <mxCell id="7DruziITL7EI19DTVxZY-14" value="" style="endArrow=none;html=1;strokeColor=#000000;strokeWidth=0.5;" edge="1" parent="1" target="7DruziITL7EI19DTVxZY-4">
          <mxGeometry width="50" height="50" relative="1" as="geometry">
            <mxPoint x="100" y="180" as="sourcePoint" />
            <mxPoint x="370" y="80" as="targetPoint" />
          </mxGeometry>
        </mxCell>
        <mxCell id="7DruziITL7EI19DTVxZY-15" value="" style="edgeStyle=none;html=1;endSize=12;endArrow=block;endFill=0;entryX=1;entryY=1;entryDx=0;entryDy=0;exitX=0.5;exitY=0;exitDx=0;exitDy=0;" edge="1" parent="1" source="7DruziITL7EI19DTVxZY-3" target="7DruziITL7EI19DTVxZY-4">
          <mxGeometry width="160" relative="1" as="geometry">
            <mxPoint x="520" y="210" as="sourcePoint" />
            <mxPoint x="610" y="179.5" as="targetPoint" />
          </mxGeometry>
        </mxCell>
        <mxCell id="7DruziITL7EI19DTVxZY-16" value="" style="edgeStyle=none;html=1;endSize=12;endArrow=block;endFill=0;exitX=0.5;exitY=0;exitDx=0;exitDy=0;" edge="1" parent="1" source="7DruziITL7EI19DTVxZY-1">
          <mxGeometry width="160" relative="1" as="geometry">
            <mxPoint x="259" y="614.5" as="sourcePoint" />
            <mxPoint x="440" y="180" as="targetPoint" />
          </mxGeometry>
        </mxCell>
        <mxCell id="7DruziITL7EI19DTVxZY-19" value="" style="endArrow=none;html=1;strokeColor=#000000;strokeWidth=0.5;exitX=0;exitY=0.5;exitDx=0;exitDy=0;entryX=1;entryY=0.5;entryDx=0;entryDy=0;" edge="1" parent="1" source="d9pyYErVMQeaN3NLRM1w-45" target="7DruziITL7EI19DTVxZY-1">
          <mxGeometry width="50" height="50" relative="1" as="geometry">
            <mxPoint x="677" y="80" as="sourcePoint" />
            <mxPoint x="600" y="80" as="targetPoint" />
          </mxGeometry>
        </mxCell>
        <mxCell id="7DruziITL7EI19DTVxZY-20" value="" style="endArrow=none;html=1;strokeColor=#000000;strokeWidth=0.5;exitX=0;exitY=0.5;exitDx=0;exitDy=0;entryX=1;entryY=0.5;entryDx=0;entryDy=0;" edge="1" parent="1" source="d9pyYErVMQeaN3NLRM1w-46" target="7DruziITL7EI19DTVxZY-1">
          <mxGeometry width="50" height="50" relative="1" as="geometry">
            <mxPoint x="677" y="190" as="sourcePoint" />
            <mxPoint x="589" y="200" as="targetPoint" />
          </mxGeometry>
        </mxCell>
        <mxCell id="7DruziITL7EI19DTVxZY-21" value="" style="endArrow=none;html=1;strokeColor=#000000;strokeWidth=0.5;exitX=0;exitY=0.5;exitDx=0;exitDy=0;" edge="1" parent="1" source="d9pyYErVMQeaN3NLRM1w-19">
          <mxGeometry width="50" height="50" relative="1" as="geometry">
            <mxPoint x="687" y="200" as="sourcePoint" />
            <mxPoint x="580" y="190" as="targetPoint" />
          </mxGeometry>
        </mxCell>
        <mxCell id="7DruziITL7EI19DTVxZY-24" value="" style="endArrow=none;html=1;strokeColor=#000000;strokeWidth=0.5;exitX=0;exitY=0.5;exitDx=0;exitDy=0;entryX=1;entryY=0.5;entryDx=0;entryDy=0;" edge="1" parent="1" source="d9pyYErVMQeaN3NLRM1w-19" target="7DruziITL7EI19DTVxZY-2">
          <mxGeometry width="50" height="50" relative="1" as="geometry">
            <mxPoint x="677" y="190" as="sourcePoint" />
            <mxPoint x="588.2842712474621" y="365.85786437626894" as="targetPoint" />
          </mxGeometry>
        </mxCell>
        <mxCell id="7DruziITL7EI19DTVxZY-25" value="" style="endArrow=none;html=1;strokeColor=#000000;strokeWidth=0.5;exitX=0;exitY=0.5;exitDx=0;exitDy=0;entryX=1;entryY=0;entryDx=0;entryDy=0;" edge="1" parent="1" source="d9pyYErVMQeaN3NLRM1w-12" target="7DruziITL7EI19DTVxZY-4">
          <mxGeometry width="50" height="50" relative="1" as="geometry">
            <mxPoint x="677" y="190" as="sourcePoint" />
            <mxPoint x="430" y="170" as="targetPoint" />
          </mxGeometry>
        </mxCell>
        <mxCell id="7DruziITL7EI19DTVxZY-26" value="" style="endArrow=none;html=1;strokeColor=#000000;strokeWidth=0.5;exitX=0;exitY=0.5;exitDx=0;exitDy=0;entryX=1;entryY=0.5;entryDx=0;entryDy=0;" edge="1" parent="1" source="d9pyYErVMQeaN3NLRM1w-50" target="7DruziITL7EI19DTVxZY-2">
          <mxGeometry width="50" height="50" relative="1" as="geometry">
            <mxPoint x="677" y="190" as="sourcePoint" />
            <mxPoint x="600" y="380" as="targetPoint" />
          </mxGeometry>
        </mxCell>
        <mxCell id="7DruziITL7EI19DTVxZY-27" value="" style="endArrow=none;html=1;strokeColor=#000000;strokeWidth=0.5;exitX=0;exitY=0.5;exitDx=0;exitDy=0;entryX=1;entryY=0.5;entryDx=0;entryDy=0;" edge="1" parent="1" source="d9pyYErVMQeaN3NLRM1w-63" target="7DruziITL7EI19DTVxZY-3">
          <mxGeometry width="50" height="50" relative="1" as="geometry">
            <mxPoint x="677" y="517" as="sourcePoint" />
            <mxPoint x="600" y="380" as="targetPoint" />
          </mxGeometry>
        </mxCell>
        <mxCell id="7DruziITL7EI19DTVxZY-28" value="" style="endArrow=none;html=1;strokeColor=#000000;strokeWidth=0.5;exitX=0;exitY=0.5;exitDx=0;exitDy=0;entryX=1;entryY=0.5;entryDx=0;entryDy=0;" edge="1" parent="1" source="d9pyYErVMQeaN3NLRM1w-19" target="7DruziITL7EI19DTVxZY-3">
          <mxGeometry width="50" height="50" relative="1" as="geometry">
            <mxPoint x="677" y="625" as="sourcePoint" />
            <mxPoint x="610" y="590" as="targetPoint" />
          </mxGeometry>
        </mxCell>
        <mxCell id="7DruziITL7EI19DTVxZY-29" value="" style="endArrow=none;html=1;strokeColor=#000000;strokeWidth=0.5;exitX=0;exitY=0.5;exitDx=0;exitDy=0;entryX=1;entryY=0.5;entryDx=0;entryDy=0;" edge="1" parent="1" source="d9pyYErVMQeaN3NLRM1w-50" target="7DruziITL7EI19DTVxZY-3">
          <mxGeometry width="50" height="50" relative="1" as="geometry">
            <mxPoint x="677" y="407" as="sourcePoint" />
            <mxPoint x="610" y="590" as="targetPoint" />
          </mxGeometry>
        </mxCell>
        <mxCell id="7DruziITL7EI19DTVxZY-30" value="" style="endArrow=none;html=1;strokeColor=#000000;strokeWidth=0.5;exitX=0;exitY=0.5;exitDx=0;exitDy=0;entryX=1;entryY=0.5;entryDx=0;entryDy=0;" edge="1" parent="1" source="d9pyYErVMQeaN3NLRM1w-45" target="7DruziITL7EI19DTVxZY-2">
          <mxGeometry width="50" height="50" relative="1" as="geometry">
            <mxPoint x="677" y="407" as="sourcePoint" />
            <mxPoint x="610" y="590" as="targetPoint" />
          </mxGeometry>
        </mxCell>
        <mxCell id="7DruziITL7EI19DTVxZY-31" value="" style="endArrow=none;html=1;strokeColor=#000000;strokeWidth=0.5;exitX=0;exitY=0.35;exitDx=0;exitDy=0;exitPerimeter=0;" edge="1" parent="1" source="d9pyYErVMQeaN3NLRM1w-45">
          <mxGeometry width="50" height="50" relative="1" as="geometry">
            <mxPoint x="677" y="182" as="sourcePoint" />
            <mxPoint x="610" y="570" as="targetPoint" />
          </mxGeometry>
        </mxCell>
        <mxCell id="7DruziITL7EI19DTVxZY-32" value="" style="edgeStyle=none;html=1;endSize=12;endArrow=block;endFill=0;entryX=0.963;entryY=0.725;entryDx=0;entryDy=0;exitX=0.5;exitY=0;exitDx=0;exitDy=0;entryPerimeter=0;" edge="1" parent="1" source="7DruziITL7EI19DTVxZY-2" target="7DruziITL7EI19DTVxZY-4">
          <mxGeometry width="160" relative="1" as="geometry">
            <mxPoint x="570" y="570" as="sourcePoint" />
            <mxPoint x="430" y="210" as="targetPoint" />
          </mxGeometry>
        </mxCell>
        <mxCell id="7DruziITL7EI19DTVxZY-35" value="create my content" style="ellipse;whiteSpace=wrap;html=1;" vertex="1" parent="1">
          <mxGeometry x="280" y="595" width="80" height="40" as="geometry" />
        </mxCell>
        <mxCell id="7DruziITL7EI19DTVxZY-36" value="delete my content" style="ellipse;whiteSpace=wrap;html=1;" vertex="1" parent="1">
          <mxGeometry x="374" y="595" width="80" height="40" as="geometry" />
        </mxCell>
        <mxCell id="7DruziITL7EI19DTVxZY-38" value="create my channel" style="ellipse;whiteSpace=wrap;html=1;" vertex="1" parent="1">
          <mxGeometry x="185" y="595" width="80" height="40" as="geometry" />
        </mxCell>
        <mxCell id="7DruziITL7EI19DTVxZY-40" value="update my content" style="ellipse;whiteSpace=wrap;html=1;" vertex="1" parent="1">
          <mxGeometry x="374" y="550" width="80" height="40" as="geometry" />
        </mxCell>
        <mxCell id="7DruziITL7EI19DTVxZY-41" value="" style="endArrow=none;html=1;strokeColor=#000000;strokeWidth=0.5;exitX=0;exitY=0.5;exitDx=0;exitDy=0;entryX=1;entryY=0.5;entryDx=0;entryDy=0;" edge="1" parent="1" source="d9pyYErVMQeaN3NLRM1w-50" target="d9pyYErVMQeaN3NLRM1w-52">
          <mxGeometry width="50" height="50" relative="1" as="geometry">
            <mxPoint x="677" y="190" as="sourcePoint" />
            <mxPoint x="600" y="294" as="targetPoint" />
          </mxGeometry>
        </mxCell>
        <mxCell id="7DruziITL7EI19DTVxZY-42" value="" style="endArrow=none;html=1;strokeColor=#000000;strokeWidth=0.5;exitX=0;exitY=0.5;exitDx=0;exitDy=0;entryX=1;entryY=0.5;entryDx=0;entryDy=0;" edge="1" parent="1" source="d9pyYErVMQeaN3NLRM1w-45" target="d9pyYErVMQeaN3NLRM1w-62">
          <mxGeometry width="50" height="50" relative="1" as="geometry">
            <mxPoint x="677" y="517" as="sourcePoint" />
            <mxPoint x="610" y="290" as="targetPoint" />
          </mxGeometry>
        </mxCell>
        <mxCell id="7DruziITL7EI19DTVxZY-43" value="" style="endArrow=none;html=1;strokeColor=#000000;strokeWidth=0.5;entryX=1;entryY=0.5;entryDx=0;entryDy=0;exitX=0;exitY=0.5;exitDx=0;exitDy=0;" edge="1" parent="1" source="d9pyYErVMQeaN3NLRM1w-45" target="d9pyYErVMQeaN3NLRM1w-42">
          <mxGeometry width="50" height="50" relative="1" as="geometry">
            <mxPoint x="670" y="180" as="sourcePoint" />
            <mxPoint x="520" y="260" as="targetPoint" />
          </mxGeometry>
        </mxCell>
        <mxCell id="7DruziITL7EI19DTVxZY-45" value="&amp;lt;&amp;lt;include&amp;gt;&amp;gt;" style="html=1;verticalAlign=bottom;labelBackgroundColor=none;endArrow=open;endFill=0;dashed=1;strokeColor=#000000;strokeWidth=0.5;entryX=0.5;entryY=0;entryDx=0;entryDy=0;" edge="1" parent="1" source="d9pyYErVMQeaN3NLRM1w-62" target="d9pyYErVMQeaN3NLRM1w-42">
          <mxGeometry width="160" relative="1" as="geometry">
            <mxPoint x="370" y="130" as="sourcePoint" />
            <mxPoint x="424" y="130" as="targetPoint" />
          </mxGeometry>
        </mxCell>
        <mxCell id="7DruziITL7EI19DTVxZY-46" value="" style="edgeStyle=none;html=1;endSize=12;endArrow=block;endFill=0;entryX=0;entryY=0.5;entryDx=0;entryDy=0;exitX=0.5;exitY=0;exitDx=0;exitDy=0;" edge="1" parent="1" source="d9pyYErVMQeaN3NLRM1w-36" target="7DruziITL7EI19DTVxZY-1">
          <mxGeometry width="160" relative="1" as="geometry">
            <mxPoint x="579" y="560" as="sourcePoint" />
            <mxPoint x="438.28427124746213" y="204.14213562373106" as="targetPoint" />
          </mxGeometry>
        </mxCell>
        <mxCell id="7DruziITL7EI19DTVxZY-47" value="" style="edgeStyle=none;html=1;endSize=12;endArrow=block;endFill=0;exitX=0.5;exitY=0;exitDx=0;exitDy=0;" edge="1" parent="1" source="d9pyYErVMQeaN3NLRM1w-38">
          <mxGeometry width="160" relative="1" as="geometry">
            <mxPoint x="370" y="250" as="sourcePoint" />
            <mxPoint x="540" y="180" as="targetPoint" />
          </mxGeometry>
        </mxCell>
        <mxCell id="7DruziITL7EI19DTVxZY-48" value="" style="edgeStyle=none;html=1;endSize=12;endArrow=block;endFill=0;entryX=0.013;entryY=0.75;entryDx=0;entryDy=0;exitX=0.5;exitY=0;exitDx=0;exitDy=0;entryPerimeter=0;" edge="1" parent="1" source="d9pyYErVMQeaN3NLRM1w-37" target="7DruziITL7EI19DTVxZY-1">
          <mxGeometry width="160" relative="1" as="geometry">
            <mxPoint x="240" y="230" as="sourcePoint" />
            <mxPoint x="539" y="200" as="targetPoint" />
          </mxGeometry>
        </mxCell>
        <mxCell id="7DruziITL7EI19DTVxZY-49" value="" style="edgeStyle=none;html=1;endSize=12;endArrow=block;endFill=0;entryX=0;entryY=1;entryDx=0;entryDy=0;exitX=1;exitY=0;exitDx=0;exitDy=0;startArrow=none;" edge="1" parent="1" source="d9pyYErVMQeaN3NLRM1w-44" target="7DruziITL7EI19DTVxZY-1">
          <mxGeometry width="160" relative="1" as="geometry">
            <mxPoint x="240" y="280" as="sourcePoint" />
            <mxPoint x="550.7157287525379" y="185.85786437626894" as="targetPoint" />
          </mxGeometry>
        </mxCell>
        <mxCell id="7DruziITL7EI19DTVxZY-50" value="" style="endArrow=none;html=1;strokeColor=#000000;strokeWidth=0.5;entryX=0.05;entryY=0.75;entryDx=0;entryDy=0;entryPerimeter=0;" edge="1" parent="1" target="d9pyYErVMQeaN3NLRM1w-14">
          <mxGeometry width="50" height="50" relative="1" as="geometry">
            <mxPoint x="100" y="180" as="sourcePoint" />
            <mxPoint x="370" y="80" as="targetPoint" />
          </mxGeometry>
        </mxCell>
        <mxCell id="7DruziITL7EI19DTVxZY-52" value="&amp;lt;&amp;lt;extend&amp;gt;&amp;gt;" style="html=1;verticalAlign=bottom;labelBackgroundColor=none;endArrow=open;endFill=0;dashed=1;strokeColor=#000000;strokeWidth=0.5;exitX=0.5;exitY=1;exitDx=0;exitDy=0;entryX=0.275;entryY=0.925;entryDx=0;entryDy=0;entryPerimeter=0;" edge="1" parent="1" source="d9pyYErVMQeaN3NLRM1w-37" target="d9pyYErVMQeaN3NLRM1w-52">
          <mxGeometry width="160" relative="1" as="geometry">
            <mxPoint x="490" y="330" as="sourcePoint" />
            <mxPoint x="539" y="270" as="targetPoint" />
          </mxGeometry>
        </mxCell>
        <mxCell id="7DruziITL7EI19DTVxZY-53" value="&amp;lt;&amp;lt;extend&amp;gt;&amp;gt;" style="html=1;verticalAlign=bottom;labelBackgroundColor=none;endArrow=open;endFill=0;dashed=1;strokeColor=#000000;strokeWidth=0.5;exitX=1;exitY=0.5;exitDx=0;exitDy=0;entryX=0.5;entryY=1;entryDx=0;entryDy=0;" edge="1" parent="1" source="d9pyYErVMQeaN3NLRM1w-56" target="d9pyYErVMQeaN3NLRM1w-52">
          <mxGeometry width="160" relative="1" as="geometry">
            <mxPoint x="240" y="320" as="sourcePoint" />
            <mxPoint x="573" y="313" as="targetPoint" />
          </mxGeometry>
        </mxCell>
        <mxCell id="7DruziITL7EI19DTVxZY-54" value="&amp;lt;&amp;lt;extend&amp;gt;&amp;gt;" style="html=1;verticalAlign=bottom;labelBackgroundColor=none;endArrow=open;endFill=0;dashed=1;strokeColor=#000000;strokeWidth=0.5;exitX=1;exitY=0;exitDx=0;exitDy=0;entryX=0.5;entryY=0;entryDx=0;entryDy=0;" edge="1" parent="1" source="d9pyYErVMQeaN3NLRM1w-36" target="d9pyYErVMQeaN3NLRM1w-52">
          <mxGeometry width="160" relative="1" as="geometry">
            <mxPoint x="475" y="457" as="sourcePoint" />
            <mxPoint x="579" y="310" as="targetPoint" />
          </mxGeometry>
        </mxCell>
        <mxCell id="7DruziITL7EI19DTVxZY-55" value="&amp;lt;&amp;lt;extend&amp;gt;&amp;gt;" style="html=1;verticalAlign=bottom;labelBackgroundColor=none;endArrow=open;endFill=0;dashed=1;strokeColor=#000000;strokeWidth=0.5;exitX=1;exitY=0.5;exitDx=0;exitDy=0;entryX=0.338;entryY=1.05;entryDx=0;entryDy=0;entryPerimeter=0;" edge="1" parent="1" source="d9pyYErVMQeaN3NLRM1w-54" target="d9pyYErVMQeaN3NLRM1w-52">
          <mxGeometry width="160" relative="1" as="geometry">
            <mxPoint x="380.00427124746216" y="477.85786437626894" as="sourcePoint" />
            <mxPoint x="600.72" y="512" as="targetPoint" />
          </mxGeometry>
        </mxCell>
        <mxCell id="7DruziITL7EI19DTVxZY-57" value="&amp;lt;&amp;lt;extend&amp;gt;&amp;gt;" style="html=1;verticalAlign=bottom;labelBackgroundColor=none;endArrow=open;endFill=0;dashed=1;strokeColor=#000000;strokeWidth=0.5;exitX=1;exitY=0;exitDx=0;exitDy=0;entryX=1;entryY=1;entryDx=0;entryDy=0;" edge="1" parent="1" source="d9pyYErVMQeaN3NLRM1w-60" target="d9pyYErVMQeaN3NLRM1w-52">
          <mxGeometry width="160" relative="1" as="geometry">
            <mxPoint x="475" y="457" as="sourcePoint" />
            <mxPoint x="579" y="310" as="targetPoint" />
          </mxGeometry>
        </mxCell>
        <mxCell id="d9pyYErVMQeaN3NLRM1w-37" value="read one&lt;br&gt;A-Trend" style="ellipse;whiteSpace=wrap;html=1;" parent="1" vertex="1">
          <mxGeometry x="280" y="270" width="80" height="40" as="geometry" />
        </mxCell>
        <mxCell id="7DruziITL7EI19DTVxZY-59" value="" style="edgeStyle=none;html=1;endSize=12;endArrow=block;endFill=0;entryX=0.5;entryY=0;entryDx=0;entryDy=0;exitX=0.5;exitY=0;exitDx=0;exitDy=0;startArrow=none;" edge="1" parent="1" source="d9pyYErVMQeaN3NLRM1w-47" target="7DruziITL7EI19DTVxZY-2">
          <mxGeometry width="160" relative="1" as="geometry">
            <mxPoint x="268.28427124746213" y="282.85786437626894" as="sourcePoint" />
            <mxPoint x="550.7157287525379" y="214.14213562373106" as="targetPoint" />
          </mxGeometry>
        </mxCell>
        <mxCell id="7DruziITL7EI19DTVxZY-60" value="" style="edgeStyle=none;html=1;endSize=12;endArrow=block;endFill=0;entryX=0.5;entryY=1;entryDx=0;entryDy=0;exitX=0.5;exitY=0;exitDx=0;exitDy=0;startArrow=none;" edge="1" parent="1" source="d9pyYErVMQeaN3NLRM1w-53" target="7DruziITL7EI19DTVxZY-2">
          <mxGeometry width="160" relative="1" as="geometry">
            <mxPoint x="235" y="382" as="sourcePoint" />
            <mxPoint x="579" y="367" as="targetPoint" />
          </mxGeometry>
        </mxCell>
        <mxCell id="7DruziITL7EI19DTVxZY-61" value="" style="edgeStyle=none;html=1;endSize=12;endArrow=block;endFill=0;entryX=0;entryY=0.5;entryDx=0;entryDy=0;exitX=0.5;exitY=0;exitDx=0;exitDy=0;startArrow=none;" edge="1" parent="1" source="d9pyYErVMQeaN3NLRM1w-49" target="7DruziITL7EI19DTVxZY-2">
          <mxGeometry width="160" relative="1" as="geometry">
            <mxPoint x="335" y="382" as="sourcePoint" />
            <mxPoint x="579" y="407" as="targetPoint" />
          </mxGeometry>
        </mxCell>
        <mxCell id="7DruziITL7EI19DTVxZY-62" value="" style="edgeStyle=none;html=1;endSize=12;endArrow=block;endFill=0;entryX=0;entryY=0.5;entryDx=0;entryDy=0;exitX=0.5;exitY=0;exitDx=0;exitDy=0;startArrow=none;" edge="1" parent="1" source="d9pyYErVMQeaN3NLRM1w-54" target="7DruziITL7EI19DTVxZY-2">
          <mxGeometry width="160" relative="1" as="geometry">
            <mxPoint x="235" y="437" as="sourcePoint" />
            <mxPoint x="539" y="387" as="targetPoint" />
          </mxGeometry>
        </mxCell>
        <mxCell id="7DruziITL7EI19DTVxZY-63" value="" style="edgeStyle=none;html=1;endSize=12;endArrow=block;endFill=0;entryX=0.5;entryY=1;entryDx=0;entryDy=0;exitX=1;exitY=0.5;exitDx=0;exitDy=0;startArrow=none;" edge="1" parent="1" source="d9pyYErVMQeaN3NLRM1w-56" target="7DruziITL7EI19DTVxZY-2">
          <mxGeometry width="160" relative="1" as="geometry">
            <mxPoint x="335" y="437" as="sourcePoint" />
            <mxPoint x="539" y="387" as="targetPoint" />
          </mxGeometry>
        </mxCell>
        <mxCell id="7DruziITL7EI19DTVxZY-64" value="" style="edgeStyle=none;html=1;endSize=12;endArrow=block;endFill=0;entryX=0.5;entryY=1;entryDx=0;entryDy=0;exitX=0.588;exitY=1;exitDx=0;exitDy=0;startArrow=none;exitPerimeter=0;" edge="1" parent="1" source="bCWWaKdkybvp4xZFp1gc-1" target="7DruziITL7EI19DTVxZY-2">
          <mxGeometry width="160" relative="1" as="geometry">
            <mxPoint x="475" y="457" as="sourcePoint" />
            <mxPoint x="569" y="409" as="targetPoint" />
          </mxGeometry>
        </mxCell>
        <mxCell id="7DruziITL7EI19DTVxZY-66" value="" style="edgeStyle=none;html=1;endSize=12;endArrow=block;endFill=0;entryX=0.5;entryY=1;entryDx=0;entryDy=0;exitX=1;exitY=0.5;exitDx=0;exitDy=0;startArrow=none;" edge="1" parent="1" source="d9pyYErVMQeaN3NLRM1w-51" target="7DruziITL7EI19DTVxZY-2">
          <mxGeometry width="160" relative="1" as="geometry">
            <mxPoint x="235" y="482" as="sourcePoint" />
            <mxPoint x="579" y="407" as="targetPoint" />
          </mxGeometry>
        </mxCell>
        <mxCell id="7DruziITL7EI19DTVxZY-67" value="" style="edgeStyle=none;html=1;endSize=12;endArrow=block;endFill=0;entryX=0;entryY=0.5;entryDx=0;entryDy=0;exitX=1;exitY=0.5;exitDx=0;exitDy=0;startArrow=none;" edge="1" parent="1" source="d9pyYErVMQeaN3NLRM1w-55" target="7DruziITL7EI19DTVxZY-2">
          <mxGeometry width="160" relative="1" as="geometry">
            <mxPoint x="375" y="502" as="sourcePoint" />
            <mxPoint x="579" y="407" as="targetPoint" />
          </mxGeometry>
        </mxCell>
        <mxCell id="7DruziITL7EI19DTVxZY-68" value="" style="edgeStyle=none;html=1;endSize=12;endArrow=block;endFill=0;entryX=0.5;entryY=0;entryDx=0;entryDy=0;exitX=0.5;exitY=0;exitDx=0;exitDy=0;startArrow=none;" edge="1" parent="1" source="d9pyYErVMQeaN3NLRM1w-59" target="7DruziITL7EI19DTVxZY-3">
          <mxGeometry width="160" relative="1" as="geometry">
            <mxPoint x="375" y="502" as="sourcePoint" />
            <mxPoint x="579" y="407" as="targetPoint" />
          </mxGeometry>
        </mxCell>
        <mxCell id="7DruziITL7EI19DTVxZY-69" value="" style="edgeStyle=none;html=1;endSize=12;endArrow=block;endFill=0;entryX=0.5;entryY=0;entryDx=0;entryDy=0;exitX=1;exitY=0.5;exitDx=0;exitDy=0;startArrow=none;" edge="1" parent="1" source="d9pyYErVMQeaN3NLRM1w-60" target="7DruziITL7EI19DTVxZY-3">
          <mxGeometry width="160" relative="1" as="geometry">
            <mxPoint x="235" y="560" as="sourcePoint" />
            <mxPoint x="579" y="560" as="targetPoint" />
          </mxGeometry>
        </mxCell>
        <mxCell id="7DruziITL7EI19DTVxZY-70" value="" style="edgeStyle=none;html=1;endSize=12;endArrow=block;endFill=0;exitX=0.5;exitY=0;exitDx=0;exitDy=0;startArrow=none;entryX=0.5;entryY=0;entryDx=0;entryDy=0;" edge="1" parent="1" source="7DruziITL7EI19DTVxZY-40" target="7DruziITL7EI19DTVxZY-3">
          <mxGeometry width="160" relative="1" as="geometry">
            <mxPoint x="375" y="580" as="sourcePoint" />
            <mxPoint x="560" y="552" as="targetPoint" />
          </mxGeometry>
        </mxCell>
        <mxCell id="7DruziITL7EI19DTVxZY-71" value="" style="edgeStyle=none;html=1;endSize=12;endArrow=block;endFill=0;entryX=0.5;entryY=1;entryDx=0;entryDy=0;exitX=0.5;exitY=1;exitDx=0;exitDy=0;startArrow=none;" edge="1" parent="1" source="7DruziITL7EI19DTVxZY-38" target="7DruziITL7EI19DTVxZY-3">
          <mxGeometry width="160" relative="1" as="geometry">
            <mxPoint x="235" y="560" as="sourcePoint" />
            <mxPoint x="579" y="560" as="targetPoint" />
          </mxGeometry>
        </mxCell>
        <mxCell id="7DruziITL7EI19DTVxZY-72" value="" style="edgeStyle=none;html=1;endSize=12;endArrow=block;endFill=0;exitX=1;exitY=1;exitDx=0;exitDy=0;startArrow=none;entryX=0.5;entryY=1;entryDx=0;entryDy=0;" edge="1" parent="1" source="7DruziITL7EI19DTVxZY-35" target="7DruziITL7EI19DTVxZY-3">
          <mxGeometry width="160" relative="1" as="geometry">
            <mxPoint x="235" y="645" as="sourcePoint" />
            <mxPoint x="560" y="590" as="targetPoint" />
          </mxGeometry>
        </mxCell>
        <mxCell id="7DruziITL7EI19DTVxZY-73" value="" style="edgeStyle=none;html=1;endSize=12;endArrow=block;endFill=0;exitX=0.5;exitY=1;exitDx=0;exitDy=0;startArrow=none;" edge="1" parent="1" source="7DruziITL7EI19DTVxZY-36">
          <mxGeometry width="160" relative="1" as="geometry">
            <mxPoint x="358.28427124746213" y="639.1421356237311" as="sourcePoint" />
            <mxPoint x="570" y="590" as="targetPoint" />
          </mxGeometry>
        </mxCell>
      </root>
    </mxGraphModel>
  </diagram>
</mxfile>
